<svg height="2158" width="720" xmlns="http://www.w3.org/2000/svg">
<rect height="2158" fill="#555" width="720"></rect>
<text fill="#7f7" font-family="Courier New" font-size="12" xml:space="preserve">
<tspan x="10" y="26">85 megabytes installed</tspan>
<tspan x="10" y="42"></tspan>
<tspan x="10" y="58">node_modules</tspan>
<tspan x="10" y="74">└─┬ uncss@0.14.1 </tspan>
<tspan x="10" y="90">  ├── async@1.5.2 </tspan>
<tspan x="10" y="106">  ├── bluebird@3.1.5 </tspan>
<tspan x="10" y="122">  ├─┬ commander@2.9.0 </tspan>
<tspan x="10" y="138">  │ └── graceful-readlink@1.0.1 </tspan>
<tspan x="10" y="154">  ├─┬ glob@6.0.4 </tspan>
<tspan x="10" y="170">  │ ├─┬ inflight@1.0.6 </tspan>
<tspan x="10" y="186">  │ │ └── wrappy@1.0.2 </tspan>
<tspan x="10" y="202">  │ ├── inherits@2.0.3 </tspan>
<tspan x="10" y="218">  │ ├─┬ minimatch@3.0.3 </tspan>
<tspan x="10" y="234">  │ │ └─┬ brace-expansion@1.1.7 </tspan>
<tspan x="10" y="250">  │ │   ├── balanced-match@0.4.2 </tspan>
<tspan x="10" y="266">  │ │   └── concat-map@0.0.1 </tspan>
<tspan x="10" y="282">  │ ├── once@1.4.0 </tspan>
<tspan x="10" y="298">  │ └── path-is-absolute@1.0.1 </tspan>
<tspan x="10" y="314">  ├── is-absolute-url@2.0.0 </tspan>
<tspan x="10" y="330">  ├─┬ is-html@1.0.0 </tspan>
<tspan x="10" y="346">  │ └── html-tags@1.1.1 </tspan>
<tspan x="10" y="362">  ├── lodash@4.0.1 </tspan>
<tspan x="10" y="378">  ├── object-assign@4.1.1 </tspan>
<tspan x="10" y="394">  ├─┬ phridge@2.0.0 </tspan>
<tspan x="10" y="410">  │ ├── fork-stream@0.0.4 </tspan>
<tspan x="10" y="426">  │ ├── linerstream@0.1.4 </tspan>
<tspan x="10" y="442">  │ ├─┬ phantomjs-prebuilt@2.1.14 </tspan>
<tspan x="10" y="458">  │ │ ├── es6-promise@4.0.5 </tspan>
<tspan x="10" y="474">  │ │ ├─┬ extract-zip@1.5.0 </tspan>
<tspan x="10" y="490">  │ │ │ ├─┬ concat-stream@1.5.0 </tspan>
<tspan x="10" y="506">  │ │ │ │ └── typedarray@0.0.6 </tspan>
<tspan x="10" y="522">  │ │ │ ├── debug@0.7.4 </tspan>
<tspan x="10" y="538">  │ │ │ ├─┬ mkdirp@0.5.0 </tspan>
<tspan x="10" y="554">  │ │ │ │ └── minimist@0.0.8 </tspan>
<tspan x="10" y="570">  │ │ │ └─┬ yauzl@2.4.1 </tspan>
<tspan x="10" y="586">  │ │ │   └─┬ fd-slicer@1.0.1 </tspan>
<tspan x="10" y="602">  │ │ │     └── pend@1.2.0 </tspan>
<tspan x="10" y="618">  │ │ ├─┬ fs-extra@1.0.0 </tspan>
<tspan x="10" y="634">  │ │ │ ├── graceful-fs@4.1.11 </tspan>
<tspan x="10" y="650">  │ │ │ ├── jsonfile@2.4.0 </tspan>
<tspan x="10" y="666">  │ │ │ └── klaw@1.3.1 </tspan>
<tspan x="10" y="682">  │ │ ├─┬ hasha@2.2.0 </tspan>
<tspan x="10" y="698">  │ │ │ └── is-stream@1.1.0 </tspan>
<tspan x="10" y="714">  │ │ ├── kew@0.7.0 </tspan>
<tspan x="10" y="730">  │ │ ├── progress@1.1.8 </tspan>
<tspan x="10" y="746">  │ │ ├─┬ request@2.79.0 </tspan>
<tspan x="10" y="762">  │ │ │ ├─┬ form-data@2.1.4 </tspan>
<tspan x="10" y="778">  │ │ │ │ └── asynckit@0.4.0 </tspan>
<tspan x="10" y="794">  │ │ │ ├── qs@6.3.2 </tspan>
<tspan x="10" y="810">  │ │ │ ├─┬ tough-cookie@2.3.2 </tspan>
<tspan x="10" y="826">  │ │ │ │ └── punycode@1.4.1 </tspan>
<tspan x="10" y="842">  │ │ │ └── uuid@3.0.1 </tspan>
<tspan x="10" y="858">  │ │ ├─┬ request-progress@2.0.1 </tspan>
<tspan x="10" y="874">  │ │ │ └── throttleit@1.0.0 </tspan>
<tspan x="10" y="890">  │ │ └─┬ which@1.2.14 </tspan>
<tspan x="10" y="906">  │ │   └── isexe@2.0.0 </tspan>
<tspan x="10" y="922">  │ └─┬ temp@0.8.3 </tspan>
<tspan x="10" y="938">  │   ├── os-tmpdir@1.0.2 </tspan>
<tspan x="10" y="954">  │   └── rimraf@2.2.8 </tspan>
<tspan x="10" y="970">  ├─┬ postcss@5.0.21 </tspan>
<tspan x="10" y="986">  │ ├── js-base64@2.1.9 </tspan>
<tspan x="10" y="1002">  │ ├── source-map@0.5.6 </tspan>
<tspan x="10" y="1018">  │ └─┬ supports-color@3.2.3 </tspan>
<tspan x="10" y="1034">  │   └── has-flag@1.0.0 </tspan>
<tspan x="10" y="1050">  └─┬ request@2.69.0 </tspan>
<tspan x="10" y="1066">    ├── aws-sign2@0.6.0 </tspan>
<tspan x="10" y="1082">    ├── aws4@1.6.0 </tspan>
<tspan x="10" y="1098">    ├─┬ bl@1.0.3 </tspan>
<tspan x="10" y="1114">    │ └─┬ readable-stream@2.0.6 </tspan>
<tspan x="10" y="1130">    │   ├── core-util-is@1.0.2 </tspan>
<tspan x="10" y="1146">    │   ├── isarray@1.0.0 </tspan>
<tspan x="10" y="1162">    │   ├── process-nextick-args@1.0.7 </tspan>
<tspan x="10" y="1178">    │   ├── string_decoder@0.10.31 </tspan>
<tspan x="10" y="1194">    │   └── util-deprecate@1.0.2 </tspan>
<tspan x="10" y="1210">    ├── caseless@0.11.0 </tspan>
<tspan x="10" y="1226">    ├─┬ combined-stream@1.0.5 </tspan>
<tspan x="10" y="1242">    │ └── delayed-stream@1.0.0 </tspan>
<tspan x="10" y="1258">    ├── extend@3.0.0 </tspan>
<tspan x="10" y="1274">    ├── forever-agent@0.6.1 </tspan>
<tspan x="10" y="1290">    ├─┬ form-data@1.0.1 </tspan>
<tspan x="10" y="1306">    │ └─┬ async@2.3.0 </tspan>
<tspan x="10" y="1322">    │   └── lodash@4.17.4 </tspan>
<tspan x="10" y="1338">    ├─┬ har-validator@2.0.6 </tspan>
<tspan x="10" y="1354">    │ ├─┬ chalk@1.1.3 </tspan>
<tspan x="10" y="1370">    │ │ ├── ansi-styles@2.2.1 </tspan>
<tspan x="10" y="1386">    │ │ ├── escape-string-regexp@1.0.5 </tspan>
<tspan x="10" y="1402">    │ │ ├─┬ has-ansi@2.0.0 </tspan>
<tspan x="10" y="1418">    │ │ │ └── ansi-regex@2.1.1 </tspan>
<tspan x="10" y="1434">    │ │ ├── strip-ansi@3.0.1 </tspan>
<tspan x="10" y="1450">    │ │ └── supports-color@2.0.0 </tspan>
<tspan x="10" y="1466">    │ ├─┬ is-my-json-valid@2.16.0 </tspan>
<tspan x="10" y="1482">    │ │ ├── generate-function@2.0.0 </tspan>
<tspan x="10" y="1498">    │ │ ├─┬ generate-object-property@1.2.0 </tspan>
<tspan x="10" y="1514">    │ │ │ └── is-property@1.0.2 </tspan>
<tspan x="10" y="1530">    │ │ ├── jsonpointer@4.0.1 </tspan>
<tspan x="10" y="1546">    │ │ └── xtend@4.0.1 </tspan>
<tspan x="10" y="1562">    │ └─┬ pinkie-promise@2.0.1 </tspan>
<tspan x="10" y="1578">    │   └── pinkie@2.0.4 </tspan>
<tspan x="10" y="1594">    ├─┬ hawk@3.1.3 </tspan>
<tspan x="10" y="1610">    │ ├── boom@2.10.1 </tspan>
<tspan x="10" y="1626">    │ ├── cryptiles@2.0.5 </tspan>
<tspan x="10" y="1642">    │ ├── hoek@2.16.3 </tspan>
<tspan x="10" y="1658">    │ └── sntp@1.0.9 </tspan>
<tspan x="10" y="1674">    ├─┬ http-signature@1.1.1 </tspan>
<tspan x="10" y="1690">    │ ├── assert-plus@0.2.0 </tspan>
<tspan x="10" y="1706">    │ ├─┬ jsprim@1.4.0 </tspan>
<tspan x="10" y="1722">    │ │ ├── assert-plus@1.0.0 </tspan>
<tspan x="10" y="1738">    │ │ ├── extsprintf@1.0.2 </tspan>
<tspan x="10" y="1754">    │ │ ├── json-schema@0.2.3 </tspan>
<tspan x="10" y="1770">    │ │ └── verror@1.3.6 </tspan>
<tspan x="10" y="1786">    │ └─┬ sshpk@1.13.0 </tspan>
<tspan x="10" y="1802">    │   ├── asn1@0.2.3 </tspan>
<tspan x="10" y="1818">    │   ├── assert-plus@1.0.0 </tspan>
<tspan x="10" y="1834">    │   ├── bcrypt-pbkdf@1.0.1 </tspan>
<tspan x="10" y="1850">    │   ├─┬ dashdash@1.14.1 </tspan>
<tspan x="10" y="1866">    │   │ └── assert-plus@1.0.0 </tspan>
<tspan x="10" y="1882">    │   ├── ecc-jsbn@0.1.1 </tspan>
<tspan x="10" y="1898">    │   ├─┬ getpass@0.1.6 </tspan>
<tspan x="10" y="1914">    │   │ └── assert-plus@1.0.0 </tspan>
<tspan x="10" y="1930">    │   ├── jodid25519@1.0.2 </tspan>
<tspan x="10" y="1946">    │   ├── jsbn@0.1.1 </tspan>
<tspan x="10" y="1962">    │   └── tweetnacl@0.14.5 </tspan>
<tspan x="10" y="1978">    ├── is-typedarray@1.0.0 </tspan>
<tspan x="10" y="1994">    ├── isstream@0.1.2 </tspan>
<tspan x="10" y="2010">    ├── json-stringify-safe@5.0.1 </tspan>
<tspan x="10" y="2026">    ├─┬ mime-types@2.1.15 </tspan>
<tspan x="10" y="2042">    │ └── mime-db@1.27.0 </tspan>
<tspan x="10" y="2058">    ├── node-uuid@1.4.8 </tspan>
<tspan x="10" y="2074">    ├── oauth-sign@0.8.2 </tspan>
<tspan x="10" y="2090">    ├── qs@6.0.4 </tspan>
<tspan x="10" y="2106">    ├── stringstream@0.0.5 </tspan>
<tspan x="10" y="2122">    ├── tough-cookie@2.2.2 </tspan>
<tspan x="10" y="2138">    └── tunnel-agent@0.4.3</tspan>
</text>
</svg>
